Coordinates
version=1
nRows=7
nColumns=40
inDegrees=yes

Units are S.I. units (second, meters, Newtons, ...)
Angles are in degrees.

endheader
time	pelvis_tilt	pelvis_list	pelvis_rotation	pelvis_tx	pelvis_ty	pelvis_tz	hip_flexion_r	hip_adduction_r	hip_rotation_r	knee_angle_r	knee_angle_r_beta	ankle_angle_r	subtalar_angle_r	mtp_angle_r	hip_flexion_l	hip_adduction_l	hip_rotation_l	knee_angle_l	knee_angle_l_beta	ankle_angle_l	subtalar_angle_l	mtp_angle_l	lumbar_extension	lumbar_bending	lumbar_rotation	arm_flex_r	arm_add_r	arm_rot_r	elbow_flex_r	pro_sup_r	wrist_flex_r	wrist_dev_r	arm_flex_l	arm_add_l	arm_rot_l	elbow_flex_l	pro_sup_l	wrist_flex_l	wrist_dev_l
      1.42000000	    -17.46162760	     -0.71085717	      2.91268597	      0.98229762	      1.03435421	     -0.35479995	     53.48203786	     -3.76602880	      1.47299796	     80.89920593	      1.41195751	      3.48829279	      0.00000000	      0.00000000	      0.75433952	      4.60479019	     -1.21069521	     20.26896341	      0.35376015	    -13.98767160	      0.00000000	      0.00000000	      6.53082733	      1.97469777	    -12.60777030	    -44.73809335	    -23.74485346	    -10.50678260	    100.47034215	     61.20204363	      0.00000000	      0.00000000	    -25.76396744	    -12.45593186	     -9.50973147	    128.27269801	     55.53292825	      0.00000000	      0.00000000
      1.43000000	    -16.90436317	     -1.84864828	      2.18197576	      0.98571369	      1.04210140	     -0.35503354	     52.69481302	     -2.64995139	     -0.26689606	     74.76619822	      1.30491633	      3.73128179	      0.00000000	      0.00000000	     -3.19330129	      3.10925127	     -1.73755080	     16.01182388	      0.27945905	    -22.69618620	      0.00000000	      0.00000000	      6.36464676	      3.89861732	    -12.24202572	    -46.85951063	    -23.22872998	    -12.38313335	    102.63919031	     60.26667703	      0.00000000	      0.00000000	    -25.82285252	    -12.57193203	     -8.12619768	    130.62960026	     55.49218382	      0.00000000	      0.00000000
      1.44000000	    -17.35601423	     -0.96418247	      1.88779404	      0.98685662	      1.04679291	     -0.35549086	     53.25198735	     -3.45329235	     -0.75873353	     69.11972833	      1.20636684	      3.90977944	      0.00000000	      0.00000000	     -4.32118635	      3.81410310	     -1.95877038	     16.19366928	      0.28263285	    -23.96985567	      0.00000000	      0.00000000	      7.01916442	      3.09193275	    -12.48605087	    -48.33574881	    -23.25397283	    -12.69072510	    103.48395634	     60.21564687	      0.00000000	      0.00000000	    -26.69080721	    -13.20119792	     -8.30385965	    132.15701288	     55.52647004	      0.00000000	      0.00000000
      1.45000000	    -17.91061054	     -1.97164264	      1.59832801	      0.98876939	      1.05178323	     -0.35547655	     52.93043419	     -2.27873268	     -2.31794443	     61.99827949	      1.08207411	      3.63962087	      0.00000000	      0.00000000	     -5.50155018	      2.53030284	     -1.70881690	     15.05798636	      0.26281144	    -30.28397020	      0.00000000	      0.00000000	      8.22017416	      4.60137362	    -13.03658515	    -49.52348891	    -23.00058157	    -13.63809165	    105.25155853	     59.94052602	      0.00000000	      0.00000000	    -27.27865887	    -12.92105407	     -7.77902091	    134.40896302	     55.60213434	      0.00000000	      0.00000000
      1.46000000	    -18.06229788	     -0.68171294	      1.08608082	      0.99045222	      1.05452366	     -0.35519861	     52.77972304	     -3.06990367	     -3.20428148	     56.34156588	      0.98334583	      3.53580513	      0.00000000	      0.00000000	     -6.58431749	      3.81235190	     -1.46666708	     15.87065564	      0.27699520	    -31.39601647	      0.00000000	      0.00000000	      8.69377206	      3.21428105	    -12.75801389	    -50.68879463	    -23.01585734	    -13.94930628	    106.23202998	     59.89032824	      0.00000000	      0.00000000	    -28.33665210	    -13.48701974	     -7.93101644	    135.61312615	     55.62775800	      0.00000000	      0.00000000
      1.47000000	    -18.20490935	      0.37911857	      0.58178202	      0.99144017	      1.05684205	     -0.35469047	     52.15418093	     -3.35462619	     -3.97977235	     49.95472923	      0.87187450	      3.06683277	      0.00000000	      0.00000000	     -7.31407890	      4.92919509	     -0.40443485	     17.29577835	      0.30186828	    -32.99034699	      0.00000000	      0.00000000	      9.00332043	      2.19281884	    -12.52130458	    -51.46418740	    -22.72560511	    -14.22279464	    107.58817455	     59.84584410	      0.00000000	      0.00000000	    -29.21562315	    -13.85197072	     -7.91676868	    137.07710766	     55.66089496	      0.00000000	      0.00000000
      1.48000000	    -18.02811690	     -0.39844697	      1.01201496	      0.99059250	      1.06019786	     -0.35446344	     49.92757970	     -1.92080142	     -3.93449252	     41.39482275	      0.72247595	      0.71802764	      0.00000000	      0.00000000	     -7.50425381	      4.14548354	      3.19469395	     20.30108990	      0.35432086	    -33.93371921	      0.00000000	      0.00000000	      8.76640342	      3.12002513	    -13.34203754	    -51.34569344	    -22.05469753	    -14.70713657	    108.93826748	     59.66902338	      0.00000000	      0.00000000	    -28.69357030	    -14.13283841	     -7.26065092	    137.90143856	     55.63960687	      0.00000000	      0.00000000
